<svg xmlns="http://www.w3.org/2000/svg" version="1.1" xmlns:xlink="http://www.w3.org/1999/xlink" xmlns:svgjs="http://svgjs.dev/svgjs" viewBox="0 0 800 800"><defs><linearGradient x1="50%" y1="0%" x2="50%" y2="100%" id="ccchaos-grad"><stop stop-color="hsl(206, 75%, 49%)" stop-opacity="1" offset="0%"></stop><stop stop-color="hsl(331, 90%, 56%)" stop-opacity="1" offset="100%"></stop></linearGradient></defs><g stroke-width="2" stroke="hsl(0, 0%, 100%)" fill="none" stroke-linecap="round"><path d="M118.36 114.35Q127.59 117.85 136.82 121.11 146.05 123.93 155.28 126.14 164.51 127.61 173.74 128.25 182.98 128.01 192.21 126.91 201.44 125.02 210.67 122.45 219.9 119.36 229.13 115.95 238.36 112.41 247.6 108.98 256.83 105.85 266.06 103.22 275.29 101.25 284.52 100.06 293.75 99.73 302.98 100.27 312.22 101.65 321.45 103.79 330.68 106.56 339.91 109.78 349.14 113.26 358.37 116.79 367.6 120.14 376.84 123.12 386.07 125.54 395.3 127.25 404.53 128.14 413.76 128.17 422.99 127.34 432.22 125.68 441.46 123.3 450.69 120.36 459.92 117.03 469.15 113.51 478.38 110.01 487.61 106.77 496.84 103.96 506.08 101.78 515.31 100.34 524.54 99.74 533.77 100.01 543 101.14 552.23 103.06 561.46 105.65 570.7 108.75 579.93 112.17 589.16 115.71 598.39 119.14 607.62 122.25 616.85 124.86 626.08 126.8 635.32 127.96 644.55 128.26 653.78 127.69 663.01 126.27 672.24 124.11 681.47 121.32 690.7 118.08 708.44 117.27 721.99 128.81 723.86 137.68 722.4 146.55 717.73 155.42 710.27 164.29 700.67 173.16 689.77 182.03 678.54 190.9 667.97 199.76 658.99 208.63 652.38 217.5 648.74 226.37 648.38 235.24 651.33 244.11 657.34 252.98 665.87 261.85 676.18 270.72 687.34 279.59 698.39 288.45 708.35 297.32 716.34 306.19 721.66 315.06 723.83 323.93 722.67 332.8 718.28 341.67 711.04 350.54 701.6 359.41 690.78 368.27 679.55 377.14 668.88 386.01 659.71 394.88 652.87 403.75 648.94 412.62 648.28 421.49 650.94 430.36 656.68 439.23 665.01 448.1 675.19 456.96 686.32 465.83 697.43 474.7 707.52 483.57 715.72 492.44 721.3 501.31 723.77 510.18 722.91 519.05 718.8 527.92 711.8 536.78 702.52 545.65 691.79 554.52 680.55 563.39 669.79 572.26 660.46 581.13 653.37 590 649.16 598.87 648.2 607.74 650.56 616.6 656.05 625.47 664.17 634.34 674.22 643.21 685.3 652.08 696.45 660.95 706.67 669.82 715.08 678.69 705.77 687.5 696.46 696.23 687.16 704.33 677.85 711.3 668.54 716.72 659.24 720.26 649.93 721.69 640.63 720.94 631.32 718.04 622.01 713.18 612.71 706.66 603.4 698.86 594.09 690.28 584.79 681.43 575.48 672.86 566.17 665.1 556.87 658.62 547.56 653.82 538.26 650.99 528.95 650.31 519.64 651.81 510.34 655.42 501.03 660.89 491.72 667.91 482.42 676.03 473.11 684.77 463.8 693.58 454.5 701.93 445.19 709.29 435.88 715.23 426.58 719.38 417.27 721.48 407.97 721.41 398.66 719.16 389.35 714.88 380.05 708.83 370.74 701.37 361.43 692.98 352.13 684.16 342.82 675.45 333.51 667.38 324.21 660.46 314.9 655.1 305.6 651.64 296.29 650.29 286.98 651.12 277.68 654.09 268.37 659.02 259.06 665.6 249.76 673.44 240.45 682.04 231.14 690.89 221.84 699.43 212.53 707.15 203.23 713.58 193.92 718.31 184.61 721.06 175.31 721.66 166 720.08 156.69 716.4 147.39 710.86 138.08 703.8 128.77 695.64 119.47 686.89 117.89 677.94 115.96 669 113.87 660.05 111.78 651.11 109.89 642.16 108.36 633.22 107.33 624.27 106.88 615.32 107.06 606.38 107.86 597.43 109.19 588.49 110.95 579.54 112.97 570.59 115.09 561.65 117.11 552.7 118.85 543.76 120.17 534.81 120.94 525.86 121.1 516.92 120.64 507.97 119.59 499.03 118.05 490.08 116.15 481.13 114.06 472.19 111.96 463.24 110.05 454.3 108.48 445.35 107.4 436.41 106.9 427.46 107.02 418.51 107.76 409.57 109.05 400.62 110.77 391.68 112.78 382.73 114.9 373.78 116.93 364.84 118.71 355.89 120.07 346.95 120.9 338 121.12 329.05 120.71 320.11 119.71 311.16 118.2 302.22 116.33 293.27 114.25 284.33 112.15 275.38 110.21 266.43 108.6 257.49 107.47 248.54 106.92 239.6 106.98 230.65 107.67 221.7 108.91 212.76 110.6 203.81 112.59 194.87 114.71 185.92 116.76 176.97 118.56 168.03 119.97 159.08 120.85 150.14 121.12 141.19 120.77 132.24 119.82 123.3 118.36 114.35" stroke-dasharray="6 7" transform="rotate(0, 400, 400)" opacity="0.05"></path><path d="M131.59 129.76Q149.57 135.61 167.55 139.09 185.52 139.41 203.5 136.51 221.48 131.04 239.46 124.21 257.43 117.56 275.41 112.57 293.39 110.36 311.36 111.42 329.34 115.52 347.32 121.74 365.3 128.69 383.27 134.81 401.25 138.73 419.23 139.58 437.2 137.18 455.18 132.04 473.16 125.33 491.14 118.55 509.11 113.2 527.09 110.5 545.07 111.03 563.04 114.69 581.02 120.65 599 127.59 616.98 133.94 634.95 138.29 652.93 139.67 670.91 137.77 688.88 133.01 706.86 126.45 712.26 143.71 705.76 160.96 689.44 178.21 668.5 195.46 649.64 212.71 638.87 229.96 639.64 247.22 651.7 264.47 671.2 281.72 691.91 298.97 707.22 316.22 712.24 333.47 705.36 350.73 688.78 367.98 667.81 385.23 649.12 402.48 638.7 419.73 639.87 436.98 652.26 454.23 671.91 471.49 692.54 488.74 707.57 505.99 712.2 523.24 704.94 540.49 688.13 557.74 667.12 575 648.62 592.25 638.55 609.5 640.12 626.75 652.82 644 672.61 661.25 693.16 678.5 675.52 694.26 657.88 705.7 640.24 710.28 622.61 706.97 604.97 696.5 587.33 681.23 569.69 664.56 552.06 650.23 534.42 641.43 516.78 640.14 499.14 646.65 481.51 659.49 463.87 675.81 446.23 691.94 428.59 704.28 410.96 710.07 393.32 708.02 375.68 698.58 358.04 683.87 340.41 667.17 322.77 652.22 305.13 642.37 287.49 639.81 269.86 645.12 252.22 657.11 234.58 673.1 216.94 689.52 199.31 702.68 181.67 709.66 164.03 708.88 146.39 700.52 128.76 686.46 124.5 669.06 120.4 651.67 117.77 634.27 117.45 616.87 119.53 599.48 123.36 582.08 127.71 564.68 131.2 547.28 132.7 529.89 131.74 512.49 128.63 495.09 124.36 477.7 120.29 460.3 117.72 442.9 117.48 425.51 119.64 408.11 123.51 390.71 127.85 373.32 131.28 355.92 132.71 338.52 131.67 321.13 128.5 303.73 124.21 286.33 120.17 268.94 117.68 251.54 117.52 234.14 119.74 216.75 123.65 199.35 127.98 181.95 131.37 164.56 132.71 147.16 131.59 129.76" stroke-dasharray="9 2" transform="rotate(4.04, 400, 400)" opacity="0.09"></path><path d="M144.17 144.97Q161.54 149.41 178.92 151.09 196.29 149.65 213.66 145.4 231.04 139.2 248.41 132.34 265.78 126.23 283.15 122.14 300.53 120.91 317.9 122.8 335.27 127.4 352.64 133.78 370.02 140.62 387.39 146.5 404.76 150.22 422.14 150.99 439.51 148.68 456.88 143.74 474.25 137.21 491.63 130.42 509 124.79 526.37 121.47 543.74 121.15 561.12 123.89 578.49 129.13 595.86 135.79 613.23 142.49 630.61 147.85 647.98 150.77 665.35 150.63 690.46 153.08 686.19 175.43 667.65 192.18 648.03 208.92 633.12 225.67 627.31 242.41 632.33 259.15 646.68 275.9 666.14 292.64 684.97 309.38 697.61 326.13 700.34 342.87 692.34 359.62 675.99 376.36 656.1 393.1 638.53 409.85 628.48 426.59 628.9 443.34 639.67 460.08 657.62 476.82 677.45 493.57 693.3 510.31 700.52 527.06 696.96 543.8 683.68 560.54 664.59 577.29 645.33 594.03 631.57 610.77 627.38 627.52 633.98 644.26 649.44 661.01 669.19 677.75 652.57 690.52 635.94 697.82 619.32 698.13 602.69 691.4 586.07 679.01 569.44 663.52 552.81 648.13 536.19 636.01 519.56 629.67 502.94 630.42 486.31 638.09 469.69 651.11 453.06 666.79 436.43 681.9 419.81 693.3 403.18 698.66 386.56 696.86 369.93 688.28 353.31 674.69 336.68 658.88 320.06 644.14 303.43 633.49 286.8 629.14 270.18 631.98 253.55 641.43 236.93 655.54 220.3 671.4 203.68 685.72 187.05 695.57 170.42 698.89 153.8 695.01 137.17 684.73 132.7 667.86 129.2 650.99 127.7 634.13 128.65 617.26 131.77 600.39 136.13 583.52 140.45 566.66 143.46 549.79 144.27 532.92 142.63 516.05 139.04 499.19 134.55 482.32 130.49 465.45 128.05 448.58 127.95 431.72 130.23 414.85 134.21 397.98 138.71 381.11 142.42 364.25 144.23 347.38 143.61 330.51 140.75 313.64 136.48 296.77 132.07 279.91 128.82 263.04 127.69 246.17 129 229.3 132.38 212.44 136.82 195.57 141.02 178.7 143.74 161.83 144.17 144.97" stroke-dasharray="2 2" transform="rotate(8.08, 400, 400)" opacity="0.13"></path><path d="M155.74 159.54Q172.39 162.23 189.04 162.03 205.68 158.97 222.33 153.64 238.98 147.05 255.63 140.45 272.27 135.09 288.92 131.99 305.57 131.74 322.22 134.39 338.86 139.42 355.51 145.9 372.16 152.58 388.81 158.21 405.45 161.7 422.1 162.4 438.75 160.18 455.4 155.45 472.04 149.12 488.69 142.39 505.34 136.52 521.99 132.65 538.63 131.5 555.28 133.29 571.93 137.68 588.58 143.84 605.22 150.6 621.87 156.68 638.52 160.91 655.17 162.5 676.04 167.23 664.66 189.51 645.89 205.71 629.05 221.91 618.71 238.11 617.68 254.31 626.23 270.51 642.05 286.71 660.84 302.91 677.5 319.11 687.51 335.31 688.15 351.51 679.25 367.71 663.22 383.9 644.42 400.1 627.94 416.3 618.27 432.5 618.02 448.7 627.27 464.9 643.5 481.1 662.3 497.3 678.58 513.5 687.92 529.7 687.77 545.9 678.19 562.1 661.76 578.3 642.96 594.5 626.88 610.7 617.89 626.89 618.43 643.09 628.35 659.29 644.96 675.49 629.34 684.47 613.71 687.48 598.09 683.93 582.47 674.52 566.84 661.02 551.22 645.99 535.6 632.3 519.97 622.53 504.35 618.55 488.73 621.11 473.1 629.72 457.48 642.75 441.86 657.72 426.23 671.8 410.61 682.31 394.99 687.25 379.36 685.69 363.74 677.92 348.12 665.42 332.49 650.56 316.87 636.16 301.25 624.96 285.62 619.08 270 619.64 254.38 626.53 238.75 638.44 223.13 653.12 207.51 667.78 191.88 679.62 176.26 686.42 160.64 686.86 145.01 680.88 140.92 664.59 138.47 648.3 138.34 632.01 140.56 615.71 144.52 599.42 149.16 583.13 153.21 566.84 155.57 550.55 155.61 534.25 153.3 517.96 149.29 501.67 144.65 485.38 140.65 469.09 138.37 452.79 138.43 436.5 140.82 420.21 144.88 403.92 149.52 387.63 153.47 371.33 155.66 355.04 155.5 338.75 153.04 322.46 148.93 306.17 144.3 289.87 140.4 273.58 138.29 257.29 138.54 241 141.09 224.71 145.24 208.41 149.87 192.12 153.72 175.83 155.74 159.54" stroke-dasharray="2 0" transform="rotate(12.12, 400, 400)" opacity="0.16"></path><path d="M166.07 173.09Q181.88 173.85 197.7 171.84 213.52 167.43 229.33 161.37 245.15 154.73 260.96 148.66 276.78 144.21 292.6 142.16 308.41 142.86 324.23 146.2 340.05 151.58 355.86 158.09 371.68 164.57 387.49 169.92 403.31 173.19 419.13 173.81 434.94 171.69 450.76 167.18 466.58 161.08 482.39 154.44 498.21 148.42 514.02 144.06 529.84 142.13 545.66 142.96 561.47 146.4 577.29 151.86 593.11 158.39 608.92 164.85 624.74 170.11 640.55 173.27 657.89 180.46 642.29 202.75 625.1 218.35 612.11 233.96 606.57 249.57 609.83 265.18 621.11 280.78 637.58 296.39 655.15 312 669.44 327.61 676.91 343.21 675.69 358.82 666.08 374.43 650.48 390.03 632.77 405.64 617.35 421.25 608.07 436.86 607.23 452.46 615.04 468.07 629.55 483.68 647.17 499.28 663.49 514.89 674.47 530.5 677.37 546.11 671.46 561.71 658.22 577.32 640.94 592.93 623.93 608.53 611.41 624.14 606.5 639.75 610.43 655.36 622.21 670.96 607.53 675.76 592.86 674.69 578.19 667.93 563.52 656.66 548.85 642.84 534.17 628.87 519.5 617.18 504.83 609.81 490.16 608.04 475.49 612.18 460.82 621.5 446.14 634.38 431.47 648.59 416.8 661.65 402.13 671.3 387.46 675.84 372.78 674.5 358.11 667.51 343.44 656.07 328.77 642.19 314.1 628.28 299.42 616.75 284.75 609.61 270.08 608.1 255.41 612.49 240.74 622.02 226.06 635.01 211.39 649.22 196.72 662.18 182.05 671.62 167.38 675.91 152.7 674.3 149.56 658.64 148.51 642.98 149.82 627.31 153.17 611.65 157.71 595.99 162.33 580.33 165.87 564.66 167.45 549 166.68 533.34 163.74 517.67 159.38 502.01 154.67 486.35 150.79 470.69 148.7 455.02 148.93 439.36 151.41 423.7 155.53 408.04 160.26 392.37 164.43 376.71 167 361.05 167.33 345.38 165.33 329.72 161.51 314.06 156.81 298.4 152.41 282.73 149.4 267.07 148.52 251.41 150.01 235.75 153.48 220.08 158.07 204.42 162.65 188.76 166.07 173.09" stroke-dasharray="7 9" transform="rotate(16.16, 400, 400)" opacity="0.20"></path><path d="M175.1 185.33Q190 184.15 204.91 180.56 219.82 175.14 234.72 168.74 249.63 162.39 264.54 157.08 279.45 153.66 294.35 152.68 309.26 154.28 324.17 158.22 339.07 163.87 353.98 170.34 368.89 176.59 383.79 181.63 398.7 184.67 413.61 185.22 428.52 183.2 443.42 178.92 458.33 173.07 473.24 166.57 488.14 160.46 503.05 155.7 517.96 153.05 532.87 152.93 547.77 155.36 562.68 159.95 577.59 165.98 592.49 172.49 607.4 178.44 622.31 182.9 637.03 192.47 620.26 214.75 606.1 229.72 597.59 244.68 596.68 259.64 603.56 274.6 616.67 289.56 633.04 304.53 648.94 319.49 660.77 334.45 665.83 349.41 662.98 364.38 652.86 379.34 637.78 394.3 621.15 409.26 606.76 424.22 597.88 439.19 596.52 454.15 602.99 469.11 615.82 484.07 632.1 499.03 648.13 514 660.26 528.96 665.75 543.92 663.34 558.88 653.59 573.85 638.7 588.81 622.06 603.77 607.45 618.73 598.19 633.69 592.51 656.46 574.83 659.64 561.03 650.46 547.22 638.2 533.42 624.79 519.62 612.37 505.82 602.9 492.01 597.89 478.21 598.13 464.41 603.59 450.61 613.4 436.8 626 423 639.39 409.2 651.45 395.39 660.27 381.59 664.43 367.79 663.29 353.99 657.03 340.18 646.64 326.38 633.76 312.58 620.44 298.77 608.8 284.97 600.68 271.17 597.37 257.37 599.4 243.56 606.44 229.76 617.38 215.96 630.48 202.16 643.66 188.35 654.83 174.55 662.22 160.75 664.65 159 649.67 159.52 634.69 162.2 619.72 166.41 604.74 171.22 589.76 175.52 574.78 178.34 559.8 179.03 544.82 177.45 529.84 173.94 514.86 169.31 499.89 164.61 484.91 160.91 469.93 159.04 454.95 159.43 439.97 162 424.99 166.15 410.01 170.95 395.03 175.31 380.05 178.23 365.08 179.06 350.1 177.59 335.12 174.18 320.14 169.59 305.16 164.86 290.18 161.07 275.2 159.08 260.22 159.35 245.25 161.8 230.27 165.89 215.29 170.69 200.31 175.1 185.33" stroke-dasharray="9 6" transform="rotate(20.200000000000003, 400, 400)" opacity="0.24"></path><path d="M182.98 196.06Q196.93 193.13 210.89 188.31 224.85 182.29 238.8 175.94 252.76 170.17 266.72 165.82 280.67 163.52 294.63 163.58 308.59 166.02 322.54 170.46 336.5 176.28 350.46 182.64 364.41 188.61 378.37 193.35 392.33 196.15 406.28 196.63 420.24 194.71 434.19 190.67 448.15 185.1 462.11 178.78 476.06 172.64 490.02 167.56 503.98 164.27 517.93 163.25 531.89 164.64 545.85 168.25 559.8 173.54 573.76 179.77 587.72 186.03 601.67 191.42 614.82 203.07 599.68 225.25 589.53 239.51 585.68 253.78 588.91 268.04 598.55 282.31 612.62 296.57 628.22 310.84 642.11 325.1 651.44 339.37 654.28 353.63 650.04 367.9 639.6 382.16 625.11 396.43 609.57 410.69 596.18 424.96 587.7 439.22 585.89 453.48 591.12 467.75 602.31 482.01 617.15 496.28 632.58 510.54 645.41 524.81 652.99 539.07 653.77 553.34 647.57 567.6 635.68 581.87 620.55 596.13 605.31 610.4 593.1 624.66 586.44 638.93 586.71 653.19 573.67 650.1 560.64 642.67 547.61 631.97 534.57 619.55 521.54 607.19 508.51 596.67 495.47 589.52 482.44 586.76 469.41 588.79 456.37 595.32 443.34 605.4 430.31 617.59 417.27 630.12 404.24 641.19 391.21 649.21 378.17 653.02 365.14 652.07 352.11 646.5 339.07 637.1 326.04 625.24 313.01 612.63 299.97 601.07 286.94 592.25 273.91 587.42 260.87 587.28 247.84 591.86 234.81 600.5 221.78 611.94 208.74 624.55 195.71 636.5 176.12 641.85 171.63 623.39 175.43 609.15 180.17 594.9 184.87 580.66 188.57 566.41 190.5 552.17 190.26 537.92 187.9 523.68 183.91 509.43 179.11 495.19 174.49 480.95 171.01 466.7 169.39 452.46 169.95 438.21 172.59 423.97 176.75 409.72 181.59 395.48 186.09 381.23 189.34 366.99 190.66 352.75 189.78 338.5 186.87 324.26 182.55 310.01 177.7 295.77 173.33 281.52 170.33 267.28 169.32 253.03 170.52 238.79 173.68 224.55 178.13 210.3 182.98 196.06" stroke-dasharray="11 7" transform="rotate(24.24, 400, 400)" opacity="0.28"></path><path d="M190.06 205.23Q203.06 200.89 216.06 195.27 229.07 189.1 242.07 183.16 255.08 178.25 268.08 175 281.08 173.83 294.09 174.9 307.09 178.06 320.1 182.91 333.1 188.81 346.1 194.99 359.11 200.65 372.11 205.06 385.11 207.64 398.12 208.04 411.12 206.23 424.13 202.43 437.13 197.15 450.13 191.06 463.14 184.97 476.14 179.65 489.15 175.82 502.15 173.96 515.15 174.32 528.16 176.85 541.16 181.23 554.17 186.87 567.17 193.05 580.17 198.97 593.18 203.84 606.18 207.04 592.27 220.57 581.47 234.09 575.81 247.61 576.35 261.13 582.97 274.65 594.46 288.17 608.65 301.69 622.91 315.21 634.57 328.73 641.46 342.25 642.29 355.77 636.91 369.29 626.32 382.81 612.49 396.33 598.01 409.85 585.59 423.37 577.52 436.89 575.34 450.42 579.43 463.94 589.04 477.46 602.37 490.98 616.94 504.5 630.03 518.02 639.19 531.54 642.72 545.06 639.95 558.58 631.41 572.1 618.68 585.62 604.15 599.14 590.52 612.66 580.34 626.18 575.51 639.7 563.14 633.58 550.77 624.25 538.41 612.93 526.04 601.1 513.68 590.3 501.31 581.94 488.95 577.1 476.58 576.41 464.22 579.96 451.85 587.3 439.49 597.46 427.12 609.12 414.75 620.77 402.39 630.88 390.02 638.15 377.66 641.61 365.29 640.83 352.93 635.91 340.56 627.48 328.2 616.64 315.83 604.81 303.46 593.52 291.1 584.25 278.73 578.2 266.37 576.16 254 578.4 241.64 584.62 229.27 594.01 216.91 605.36 204.54 617.18 186.8 625.34 184.82 609.29 189.38 595.82 194.23 582.35 198.48 568.88 201.33 555.41 202.26 541.94 201.08 528.47 198.02 515.01 193.65 501.54 188.78 488.07 184.33 474.6 181.12 461.13 179.75 447.66 180.48 434.19 183.18 420.72 187.33 407.26 192.16 393.79 196.78 380.32 200.32 366.85 202.12 353.38 201.84 339.91 199.54 326.44 195.64 312.98 190.88 299.51 186.14 286.04 182.3 272.57 180.09 259.1 179.91 245.63 181.8 232.16 185.41 218.69 190.06 205.23" stroke-dasharray="7 8" transform="rotate(28.28, 400, 400)" opacity="0.32"></path><path d="M196.84 212.94Q208.92 207.66 221.01 201.72 233.09 195.82 245.18 190.63 257.26 186.78 269.35 184.71 281.43 184.65 293.52 186.63 305.61 190.41 317.69 195.54 329.78 201.43 341.86 207.38 353.95 212.7 366.03 216.77 378.12 219.11 390.21 219.45 402.29 217.75 414.38 214.2 426.46 209.23 438.55 203.4 450.63 197.42 462.72 191.97 474.8 187.69 486.89 185.09 498.98 184.46 511.06 185.89 523.15 189.2 535.23 194.01 547.32 199.75 559.4 205.76 571.49 211.32 583.57 215.8 572.82 228.54 566.29 241.28 565.08 254.01 569.39 266.75 578.5 279.49 590.88 292.23 604.45 304.97 616.94 317.71 626.25 330.45 630.83 343.19 629.89 355.93 623.6 368.67 613.02 381.41 599.92 394.15 586.49 406.89 575 419.63 567.36 432.37 564.86 445.11 567.92 457.85 576.03 470.58 587.82 483.32 601.32 496.06 614.26 508.8 624.47 521.54 630.24 534.28 630.6 547.02 625.5 559.76 615.77 572.5 603.07 585.24 589.51 597.98 577.38 610.72 568.71 623.46 556.92 615.2 545.13 604.93 533.34 593.85 521.56 583.26 509.77 574.39 497.98 568.28 486.2 565.64 474.41 566.8 462.62 571.6 450.83 579.49 439.05 589.55 427.26 600.59 415.47 611.34 403.69 620.51 391.9 627.06 380.11 630.2 368.32 629.58 356.54 625.26 344.75 617.75 332.96 607.93 321.18 596.94 309.39 586.08 297.6 576.62 285.81 569.65 274.03 566 262.24 566.1 250.45 569.92 238.66 577.03 226.88 586.6 215.09 597.49 201.39 593.59 208.36 567.53 211.83 554.86 213.66 542.2 213.53 529.54 211.47 516.87 207.81 504.21 203.18 491.54 198.35 478.88 194.14 466.22 191.24 453.55 190.14 440.89 191.03 428.22 193.77 415.56 197.88 402.9 202.68 390.23 207.37 377.57 211.16 364.9 213.41 352.24 213.74 339.58 212.11 326.91 208.77 314.25 204.3 301.58 199.45 288.92 195.02 276.26 191.76 263.59 190.22 250.93 190.65 238.27 192.99 225.6 196.84 212.94" stroke-dasharray="6 5" transform="rotate(32.32, 400, 400)" opacity="0.35"></path><path d="M203.92 219.44Q215.15 213.75 226.38 207.98 237.61 202.73 248.84 198.55 260.07 195.89 271.3 195.01 282.53 196.01 293.76 198.78 304.99 203.04 316.22 208.34 327.45 214.13 338.67 219.8 349.9 224.75 361.13 228.48 372.36 230.59 383.59 230.86 394.82 229.27 406.05 225.97 417.28 221.32 428.51 215.8 439.74 209.99 450.97 204.49 462.2 199.88 473.43 196.64 484.66 195.11 495.89 195.44 507.12 197.61 518.35 201.39 529.58 206.38 540.81 212.07 552.04 217.84 563.27 223.12 556.58 235.05 554.45 246.98 557.2 258.92 564.42 270.85 575.02 282.79 587.41 294.72 599.74 306.65 610.16 318.59 617.11 330.52 619.55 342.46 617.1 354.39 610.15 366.32 599.72 378.26 587.39 390.19 575 402.13 564.41 414.06 557.2 426 554.45 437.93 556.59 449.86 563.28 461.8 573.52 473.73 585.79 485.67 598.23 497.6 608.99 509.53 616.46 521.47 619.51 533.4 617.68 545.34 611.26 557.27 601.2 569.2 589.01 581.14 576.52 593.07 565.6 605.01 554.33 595.62 543.05 585.34 531.78 575.23 520.5 566.35 509.23 559.62 497.95 555.76 486.68 555.16 475.4 557.88 464.13 563.65 452.86 571.85 441.58 581.64 430.31 591.99 419.03 601.81 407.76 610.09 396.48 615.96 385.21 618.79 373.93 618.31 362.66 614.55 351.38 607.92 340.11 599.1 328.83 589.01 317.56 578.72 306.29 569.28 295.01 561.7 283.74 556.76 272.46 554.98 261.19 556.55 249.91 561.29 238.64 568.72 227.36 578.06 215.48 575.21 222.28 551.09 224.73 539.24 225.43 527.4 224.26 515.56 221.41 503.71 217.29 491.87 212.53 480.02 207.84 468.18 203.92 456.33 201.37 444.49 200.55 432.64 201.6 420.8 204.36 408.95 208.41 397.11 213.15 385.27 217.86 373.42 221.85 361.58 224.51 349.73 225.44 337.89 224.51 326.04 221.85 314.2 217.87 302.35 213.15 290.51 208.41 278.66 204.36 266.82 201.6 254.97 200.55 243.13 201.36 231.29 203.92 219.44" stroke-dasharray="1 3" transform="rotate(36.36, 400, 400)" opacity="0.39"></path><path d="M211.92 225.12Q222.37 219.54 232.83 214.38 243.28 210.1 253.73 207.12 264.18 205.69 274.64 205.97 285.09 207.91 295.54 211.34 305.99 215.95 316.45 221.3 326.9 226.9 337.35 232.23 347.8 236.8 358.26 240.18 368.71 242.06 379.16 242.27 389.61 240.79 400.07 237.75 410.52 233.43 420.97 228.24 431.42 222.66 441.88 217.2 452.33 212.37 462.78 208.62 473.23 206.29 483.69 205.6 494.14 206.62 504.59 209.24 515.04 213.23 525.5 218.22 535.95 223.75 546.4 229.29 544.04 240.41 545.93 251.53 551.81 262.65 560.91 273.77 572.02 284.89 583.65 296 594.27 307.12 602.45 318.24 607.12 329.36 607.65 340.48 603.97 351.6 596.58 362.72 586.44 373.84 574.92 384.96 563.54 396.07 553.82 407.19 547.04 418.31 544.11 429.43 545.43 440.55 550.8 451.67 559.53 462.79 570.44 473.91 582.09 485.02 592.94 496.14 601.53 507.26 606.72 518.38 607.83 529.5 604.71 540.62 597.77 551.74 587.94 562.86 576.51 573.97 565.02 585.09 554.23 575.57 543.43 566.08 532.63 557.52 521.83 550.66 511.04 546.15 500.24 544.41 489.44 545.59 478.65 549.59 467.85 556.04 457.05 564.33 446.26 573.71 435.46 583.29 424.66 592.2 413.86 599.61 403.07 604.83 392.27 607.38 381.47 607.03 370.68 603.79 359.88 597.99 349.08 590.14 338.29 580.98 327.49 571.37 316.69 562.18 305.89 554.27 295.1 548.37 284.3 545.03 273.5 544.57 262.71 547.01 251.91 552.14 241.11 559.47 230.07 556.23 235.71 533.82 236.98 522.79 236.53 511.77 234.41 500.74 230.91 489.72 226.48 478.69 221.73 467.67 217.28 456.64 213.72 445.62 211.52 434.59 210.99 423.57 212.18 412.54 214.95 401.52 218.91 390.49 223.56 379.47 228.26 368.44 232.39 357.42 235.41 346.39 236.91 335.37 236.69 324.34 234.79 313.32 231.45 302.29 227.12 291.27 222.37 280.24 217.84 269.22 214.13 258.19 211.73 247.17 210.96 236.14 211.92 225.12" stroke-dasharray="7 7" transform="rotate(40.400000000000006, 400, 400)" opacity="0.43"></path><path d="M221.37 230.44Q231.12 225.47 240.88 221.27 250.64 218.2 260.4 216.49 270.16 216.29 279.92 217.61 289.67 220.36 299.43 224.29 309.19 229.1 318.95 234.39 328.71 239.72 338.47 244.68 348.22 248.84 357.98 251.87 367.74 253.53 377.5 253.68 387.26 252.31 397.02 249.52 406.77 245.55 416.53 240.72 426.29 235.43 436.05 230.1 445.81 225.16 455.57 221.03 465.32 218.04 475.08 216.43 484.84 216.33 494.6 217.75 504.36 220.58 514.12 224.58 523.87 229.44 533.63 234.74 535.25 245.05 540.35 255.36 548.33 265.66 558.26 275.97 568.98 286.28 579.23 296.58 587.82 306.89 593.74 317.2 596.29 327.51 595.18 337.81 590.54 348.12 582.91 358.43 573.19 368.74 562.5 379.04 552.11 389.35 543.23 399.66 536.89 409.96 533.84 420.27 534.43 430.58 538.61 440.89 545.86 451.19 555.36 461.5 565.99 471.81 576.5 482.12 585.66 492.42 592.4 502.73 595.94 513.04 595.86 523.34 592.17 533.65 585.29 543.96 576.04 554.27 565.5 564.57 555.18 555.78 544.86 547.74 534.54 541.1 524.22 536.41 513.9 534.05 503.57 534.21 493.25 536.88 482.93 541.85 472.61 548.7 462.29 556.87 451.97 565.71 441.65 574.49 431.32 582.5 421 589.08 410.68 593.7 400.36 595.97 390.04 595.73 379.72 592.98 369.4 587.95 359.07 581.04 348.75 572.83 338.43 563.98 328.11 555.22 317.79 547.25 307.47 540.72 297.15 536.18 286.82 533.98 276.5 534.31 266.18 537.14 255.86 542.25 244.73 537.5 248.41 516.57 248.44 506.35 246.91 496.13 243.97 485.91 239.99 475.69 235.43 465.47 230.81 455.25 226.68 445.04 223.53 434.82 221.71 424.6 221.46 414.38 222.78 404.16 225.54 393.94 229.4 383.72 233.91 373.5 238.56 363.28 242.78 353.07 246.1 342.85 248.11 332.63 248.59 322.41 247.48 312.19 244.91 301.97 241.18 291.75 236.73 281.53 232.07 271.31 227.75 261.1 224.28 250.88 222.07 240.66 221.37 230.44" stroke-dasharray="9 5" transform="rotate(44.44, 400, 400)" opacity="0.47"></path><path d="M232.62 235.94Q241.75 231.97 250.89 229 260.03 227.23 269.17 226.79 278.31 227.72 287.45 229.95 296.58 233.32 305.72 237.59 314.86 242.45 324 247.57 333.14 252.58 342.28 257.12 351.41 260.86 360.55 263.56 369.69 265 378.83 265.09 387.97 263.83 397.11 261.3 406.24 257.68 415.38 253.23 424.52 248.27 433.66 243.14 442.8 238.22 451.94 233.85 461.07 230.35 470.21 227.95 479.35 226.84 488.49 227.09 497.63 228.68 506.77 231.5 515.9 235.36 525.04 239.96 529.81 249.48 537.05 258.99 546.01 268.5 555.8 278.01 565.39 287.52 573.83 297.04 580.24 306.55 583.97 316.06 584.64 325.57 582.19 335.08 576.86 344.59 569.19 354.11 559.97 363.62 550.15 373.13 540.72 382.64 532.64 392.15 526.74 401.66 523.62 411.18 523.6 420.69 526.69 430.2 532.56 439.71 540.62 449.22 550.04 458.74 559.87 468.25 569.1 477.76 576.78 487.27 582.14 496.78 584.63 506.29 583.99 515.81 580.29 525.32 564.79 535.9 545.86 530.8 536.04 526.28 526.22 523.73 516.4 523.33 506.58 525.11 496.77 528.94 486.95 534.56 477.13 541.55 467.31 549.43 457.49 557.63 447.67 565.58 437.86 572.7 428.04 578.49 418.22 582.54 408.4 584.56 398.58 584.42 388.76 582.11 378.95 577.8 369.13 571.8 359.31 564.53 349.49 556.52 339.67 548.33 329.85 540.54 320.04 533.7 310.22 528.31 300.4 524.75 290.58 523.26 280.76 523.95 270.95 526.78 259.01 519.8 260.15 500.16 259 490.72 256.53 481.29 252.97 471.85 248.71 462.42 244.17 452.98 239.81 443.54 236.09 434.11 233.38 424.67 231.95 415.23 231.96 405.8 233.4 396.36 236.13 386.92 239.86 377.49 244.22 368.05 248.76 358.62 253.02 349.18 256.56 339.74 259.02 330.31 260.16 320.87 259.85 311.43 258.12 302 255.16 292.56 251.26 283.13 246.83 273.69 242.31 264.25 238.16 254.82 234.82 245.38 232.62 235.94" stroke-dasharray="11 5" transform="rotate(48.48, 400, 400)" opacity="0.51"></path><path d="M245.79 242.17Q262.93 238.41 280.08 238.11 288.66 240.01 297.23 242.96 305.81 246.76 314.38 251.2 322.95 255.98 331.53 260.83 340.1 265.45 348.68 269.54 365.82 274.67 382.97 276.5 391.55 275.35 400.12 273.07 408.69 269.8 417.27 265.75 425.84 261.16 434.42 256.32 442.99 251.52 451.56 247.05 460.14 243.2 468.71 240.19 485.86 237.98 503.01 239.31 511.58 241.95 520.16 245.51 526.96 254.25 535.17 262.99 544.07 271.74 552.88 280.48 560.81 289.22 567.18 297.96 571.42 306.7 573.15 315.44 572.23 324.18 568.73 332.93 562.96 341.67 555.43 350.41 546.81 359.15 537.85 367.89 529.35 376.63 522.05 385.38 516.59 394.12 513.46 402.86 512.93 411.6 515.05 420.34 519.63 429.08 526.27 437.82 534.39 446.57 543.26 455.31 552.11 464.05 560.15 472.79 566.69 481.53 571.13 490.27 573.1 499.01 572.42 507.76 561.72 518.11 545.03 515.65 535.77 513.25 526.5 512.67 517.24 513.95 507.97 517.01 498.71 521.66 489.44 527.62 480.18 534.53 470.91 541.95 461.65 549.44 452.38 556.53 443.12 562.8 433.85 567.85 424.59 571.37 415.32 573.16 406.06 573.09 396.79 571.18 387.53 567.54 378.27 562.4 369 556.07 359.74 548.93 350.47 541.43 341.21 534.03 331.94 527.18 322.68 521.29 313.41 516.74 304.15 513.8 294.88 512.65 285.62 513.35 272.43 503.83 270.8 485.33 268.62 476.65 265.41 467.96 261.47 459.28 257.12 450.59 252.77 441.91 248.79 433.23 245.53 424.54 243.28 415.86 243.14 398.49 246.71 381.12 250.3 372.43 254.47 363.75 258.87 355.07 263.1 346.38 266.79 337.7 269.62 329.01 271.14 311.64 268.86 294.27 265.74 285.59 261.85 276.91 257.52 268.22 253.15 259.54 249.12 250.85 245.79 242.17" stroke-dasharray="7 8" transform="rotate(52.52, 400, 400)" opacity="0.54"></path><path d="M260.73 249.6Q276.81 247.97 292.89 250.47 308.97 256.59 325.05 265.06 341.13 274.14 357.21 281.95 373.3 286.88 389.38 287.91 405.46 284.83 421.54 278.28 437.62 269.6 453.7 260.59 469.78 253.11 485.87 248.7 501.95 248.28 518.03 251.92 533.73 267.92 548.91 283.93 559.11 299.93 561.31 315.94 554.86 331.94 541.67 347.94 525.62 363.95 511.46 379.95 503.35 395.96 503.69 411.96 512.38 427.96 526.85 443.97 542.85 459.97 555.64 475.98 561.46 491.98 558.58 507.98 541.29 502.54 523.99 503.18 506.69 509.76 489.4 520.94 472.1 534.4 454.8 547.36 437.51 557.15 420.21 561.75 402.91 560.2 385.62 552.84 368.32 541.17 351.02 527.61 333.73 514.95 316.43 505.81 299.13 502.08 281.84 504.52 283.33 488.59 280.3 472.66 273.64 456.72 265.32 440.79 257.78 424.86 253.26 408.93 253.08 392.99 257.3 377.06 264.68 361.13 273.03 345.2 279.9 329.27 283.25 313.33 282.11 297.4 276.8 281.47 268.9 265.54 260.73 249.6" stroke-dasharray="11 2" transform="rotate(56.56, 400, 400)" opacity="0.58"></path><path d="M277 258.64Q292.03 259.55 307.05 263.83 322.08 270.76 337.1 279.11 352.12 287.45 367.15 294.31 382.17 298.52 397.19 299.32 412.22 296.59 427.24 290.8 442.27 282.96 457.29 274.42 472.31 266.69 487.34 261.09 502.36 258.61 517.39 259.67 531.74 274.26 543.41 288.85 549.51 303.44 548.52 318.03 540.67 332.62 527.93 347.21 513.46 361.8 500.87 376.39 493.28 390.97 492.6 405.56 498.97 420.15 510.83 434.74 525.22 449.33 538.56 463.92 547.52 478.51 549.89 493.1 533.95 491.56 518.02 495.15 502.08 503.23 486.15 514.4 470.21 526.71 454.28 538.04 438.34 546.4 422.41 550.34 406.47 549.17 390.54 543.11 374.6 533.2 358.67 521.17 342.73 509.1 326.8 499.11 310.86 492.92 294.93 491.62 293.63 477.06 288.68 462.5 281.33 447.93 273.39 433.37 266.85 418.81 263.33 404.25 263.71 389.69 267.89 375.13 274.84 360.57 282.82 346.01 289.85 331.45 294.17 316.89 294.72 302.33 291.36 287.76 284.92 273.2 277 258.64" stroke-dasharray="9 11" transform="rotate(60.599999999999994, 400, 400)" opacity="0.62"></path><path d="M293.97 269.54Q307.9 272.57 321.82 278.12 335.75 285.37 349.68 293.29 363.6 300.74 377.53 306.63 391.46 310.13 405.38 310.73 419.31 308.34 433.24 303.3 447.17 296.35 461.09 288.48 475.02 280.83 488.95 274.5 502.87 270.4 516.8 269.13 528.3 282.36 536.03 295.6 538.38 308.83 534.87 322.07 526.23 335.3 514.23 348.54 501.36 361.77 490.28 375.01 483.26 388.24 481.76 401.48 486.09 414.71 495.36 427.94 507.64 441.18 520.41 454.41 531.03 467.65 537.31 480.88 522.85 482.66 508.39 488.38 493.93 497.21 479.47 507.88 465.01 518.86 450.55 528.56 436.09 535.59 421.63 538.93 407.17 538.09 392.71 533.21 378.24 524.98 363.78 514.59 349.32 503.54 334.86 493.42 320.4 485.69 305.94 481.46 302.28 468.21 296.08 454.97 288.62 441.73 281.45 428.48 276.04 415.24 273.51 401.99 274.39 388.75 278.48 375.5 284.96 362.26 292.47 349.01 299.47 335.77 304.52 322.52 306.56 309.28 305.19 296.03 300.68 282.79 293.97 269.54" stroke-dasharray="5 1" transform="rotate(64.64, 400, 400)" opacity="0.66"></path><path d="M310.82 282.39Q323.57 286.96 336.33 293.17 349.08 300.31 361.84 307.52 374.59 313.96 387.35 318.89 400.1 321.73 412.86 322.14 425.61 320.08 438.37 315.78 451.12 309.75 463.88 302.7 476.63 295.45 489.39 288.85 502.14 283.67 514.9 280.51 522.72 292.44 526.55 304.37 525.77 316.3 520.49 328.23 511.61 340.16 500.61 352.08 489.34 364.01 479.69 375.94 473.28 387.87 471.18 399.8 473.75 411.73 480.55 423.66 490.45 435.58 501.78 447.51 512.65 459.44 521.22 471.37 508.31 475.62 495.41 482.61 482.5 491.52 469.59 501.3 456.69 510.81 443.78 518.94 430.88 524.73 417.97 527.52 405.06 526.96 392.16 523.14 379.25 516.49 366.34 507.79 353.44 498.06 340.53 488.45 327.62 480.06 314.72 473.9 309.42 461.93 302.72 449.96 295.72 437.99 289.61 426.02 285.41 414.05 283.82 402.08 285.11 390.11 289.07 378.14 295.03 366.17 301.99 354.2 308.78 342.23 314.27 330.26 317.53 318.29 318.01 306.33 315.64 294.36 310.82 282.39" stroke-dasharray="1 11" transform="rotate(68.68, 400, 400)" opacity="0.70"></path><path d="M326.71 297.08Q338.19 302.51 349.68 308.82 361.17 315.42 372.66 321.71 384.15 327.1 395.64 331.08 407.13 333.3 418.62 333.55 430.11 331.8 441.6 328.21 453.09 323.13 464.58 317.01 476.07 310.42 487.56 303.98 506.78 301.4 514.97 315.17 511.83 325.83 505.53 336.48 496.9 347.14 487.08 357.79 477.38 368.45 469.1 379.11 463.33 389.76 460.83 400.42 461.95 411.07 466.53 421.73 473.96 432.38 483.26 443.04 492.15 461.91 479.8 477.55 468.49 485.94 457.18 494.53 445.86 502.51 434.55 509.15 423.24 513.82 411.92 516.11 400.61 515.79 389.3 512.89 377.98 507.69 366.67 500.66 355.35 492.46 344.04 483.85 332.73 475.62 321.41 468.54 315.39 457.82 308.91 447.1 302.84 436.39 297.99 425.67 295 414.96 294.27 404.24 295.9 393.52 299.66 382.81 305.07 372.09 311.4 361.37 317.8 350.66 323.44 339.94 327.55 329.22 329.6 318.51 329.3 307.79 326.71 297.08" stroke-dasharray="8 1" transform="rotate(72.72, 400, 400)" opacity="0.73"></path><path d="M340.88 313.33Q351.01 318.92 361.13 324.81 371.26 330.57 381.39 335.79 391.52 340.1 401.65 343.19 411.78 344.85 421.91 344.96 432.04 343.51 442.17 340.59 452.29 336.43 462.42 331.32 472.55 325.61 482.68 319.71 497.47 326.73 490.15 346.62 482.17 356.01 473.67 365.41 465.5 374.81 458.51 384.2 453.4 393.6 450.71 403 450.69 412.4 453.36 421.79 458.44 431.19 465.42 440.59 472.96 457.85 462.63 472.86 452.91 480.29 443.18 487.49 433.46 493.94 423.74 499.19 414.01 502.86 404.29 504.7 394.57 504.56 384.84 502.47 375.12 498.56 365.39 493.13 355.67 486.55 345.95 479.28 336.22 471.86 326.5 464.8 320.64 455.33 315.01 445.87 310.21 436.4 306.7 426.93 304.86 417.46 304.87 408 306.73 398.53 310.25 389.06 315.07 379.6 320.7 370.13 326.56 360.66 332.06 351.19 336.63 341.73 339.81 332.26 341.28 322.79 340.88 313.33" stroke-dasharray="3 4" transform="rotate(76.76, 400, 400)" opacity="0.77"></path><path d="M352.77 330.7Q370.15 340.9 387.52 349.67 404.9 355.21 422.28 356.37 439.66 352.91 457.04 345.55 480.27 338.88 474.51 358.22 460.39 374.5 447.92 390.77 440.78 407.04 441.08 423.31 448.73 439.58 461.47 455.85 445.12 468.2 428.78 480.09 412.43 489.07 396.09 493.29 379.74 491.87 363.39 485.11 347.05 474.41 330.7 461.97 321.43 445.56 315.87 429.15 315.65 412.74 320.84 396.33 329.92 379.92 340.19 363.51 348.64 347.11 352.77 330.7" stroke-dasharray="3 5" transform="rotate(80.80000000000001, 400, 400)" opacity="0.81"></path><path d="M362.1 348.62Q376.5 356.8 390.9 363.28 405.3 367.12 419.69 367.78 434.09 365.15 448.49 359.62 466.21 354.51 458.79 370.76 447.26 384.47 437.33 398.18 431.04 411.9 429.7 425.61 433.58 439.32 441.88 453.03 428.51 463.24 415.14 472.25 401.77 478.78 388.4 481.88 375.03 481.1 361.66 476.57 348.29 468.92 334.93 459.27 328.55 445.44 325.58 431.61 326.61 417.77 331.43 403.94 339.06 390.11 347.91 376.28 356.16 362.45 362.1 348.62" stroke-dasharray="3 9" transform="rotate(84.84, 400, 400)" opacity="0.85"></path><path d="M368.96 366.45Q380.34 372.24 391.72 376.54 403.1 378.92 414.48 379.19 425.87 377.31 437.25 373.45 442.34 382.45 426.74 405.77 421.47 416.86 419.19 427.96 420.21 439.05 424.4 450.15 413.86 457.66 403.33 463.91 392.79 468.32 382.26 470.47 371.73 470.17 361.19 467.44 350.66 462.54 340.12 455.92 336.74 444.74 335.91 433.55 337.75 422.37 342.02 411.19 348.15 400 355.32 388.82 362.58 377.63 368.96 366.45" stroke-dasharray="2 1" transform="rotate(88.88, 400, 400)" opacity="0.89"></path><path d="M373.77 383.53Q390.56 389.37 407.35 390.6 425.96 391.48 416.15 412.82 409.5 429.64 409.78 446.45 394.13 455.03 378.47 459.06 362.82 457.71 347.17 451.25 346.93 434.32 352.61 417.39 362.53 400.46 373.77 383.53" stroke-dasharray="7 6" transform="rotate(92.92, 400, 400)" opacity="0.92"></path><path d="M377.28 399.26Q388.26 401.73 399.24 402.01 411.49 403.71 405.56 418.68 400.54 429.99 398.37 441.3 387.96 445.56 377.55 447.65 362.91 440.35 363.2 421.99 369.69 410.62 377.28 399.26" stroke-dasharray="10 5" transform="rotate(96.96, 400, 400)" opacity="0.96"></path></g></svg>
